<?xml version="1.0" encoding="UTF-8"?>
<svg width="41px" height="40px" viewBox="0 0 41 40" version="1.1" xmlns="http://www.w3.org/2000/svg" xmlns:xlink="http://www.w3.org/1999/xlink">
    <!-- Generator: Sketch 48.1 (47250) - http://www.bohemiancoding.com/sketch -->
    <title>Shape</title>
    <desc>Created with Sketch.</desc>
    <defs></defs>
    <g id="footer/v3" stroke="none" stroke-width="1" fill="none" fill-rule="evenodd" transform="translate(-905.000000, -40.000000)">
        <g id="social" transform="translate(495.000000, 40.000000)" fill="#585858" fill-rule="nonzero">
            <path d="M430.587035,0 C419.677872,0 410.833004,8.92573529 410.833004,19.9346405 C410.833004,30.9435458 419.677872,39.869281 430.587035,39.869281 C441.496199,39.869281 450.341066,30.9435458 450.341066,19.9346405 C450.341066,8.92324346 441.496199,0 430.587035,0 Z M442.723418,24.3975082 C442.590078,26.057067 441.343105,28.1751225 439.594873,28.4816176 C434.006952,28.9176879 427.374536,28.8653595 421.581666,28.4816176 C419.774173,28.2523693 418.586461,26.0545752 418.453122,24.3975082 C418.171627,20.9139297 418.171627,18.930433 418.453122,15.4468546 C418.586461,13.7897876 419.803804,11.6044526 421.581666,11.4051062 C427.307866,10.9191993 433.972382,11.0238562 439.594873,11.4051062 C441.609785,11.4798611 442.590078,13.5705065 442.723418,15.2300654 C443.002444,18.7136438 443.002444,20.9139297 442.723418,24.3975082 Z M428.117781,24.9183007 L435.525543,19.9346405 L428.117781,14.9509804 L428.117781,24.9183007 Z" id="Shape"></path>
        </g>
    </g>
</svg>