<?xml version="1.0" encoding="UTF-8"?>
<svg width="40px" height="40px" viewBox="0 0 40 40" version="1.1" xmlns="http://www.w3.org/2000/svg" xmlns:xlink="http://www.w3.org/1999/xlink">
    <!-- Generator: Sketch 48.1 (47250) - http://www.bohemiancoding.com/sketch -->
    <title>Shape</title>
    <desc>Created with Sketch.</desc>
    <defs></defs>
    <g id="footer/v3" stroke="none" stroke-width="1" fill="none" fill-rule="evenodd" transform="translate(-495.000000, -40.000000)">
        <g id="social" transform="translate(495.000000, 40.000000)" fill="#585858" fill-rule="nonzero">
            <path d="M19.754031,0 C8.84486736,0 0,8.92573529 0,19.9346405 C0,30.9435458 8.84486736,39.869281 19.754031,39.869281 C30.6631946,39.869281 39.5080619,30.9435458 39.5080619,19.9346405 C39.5080619,8.92324346 30.6631946,0 19.754031,0 Z M24.860448,19.9321487 L21.6232561,19.9346405 L21.6207869,31.8954248 L17.1785992,31.8954248 L17.1785992,19.9346405 L14.2154945,19.9346405 L14.2154945,15.8131536 L17.1785992,15.8106618 L17.1736607,13.3836193 C17.1736607,10.0196487 18.0774076,7.97385621 22.001052,7.97385621 L25.2703441,7.97385621 L25.2703441,12.097835 L23.2258019,12.097835 C21.6973338,12.097835 21.6232561,12.6734477 21.6232561,13.7474265 L21.6183176,15.8106618 L25.2925674,15.8106618 L24.860448,19.9321487 Z" id="Shape"></path>
        </g>
    </g>
</svg>