<?xml version="1.0" encoding="UTF-8"?>
<svg width="40px" height="40px" viewBox="0 0 40 40" version="1.1" xmlns="http://www.w3.org/2000/svg" xmlns:xlink="http://www.w3.org/1999/xlink">
    <!-- Generator: Sketch 48.1 (47250) - http://www.bohemiancoding.com/sketch -->
    <title>Shape</title>
    <desc>Created with Sketch.</desc>
    <defs></defs>
    <g id="footer/v3" stroke="none" stroke-width="1" fill="none" fill-rule="evenodd" transform="translate(-659.000000, -40.000000)">
        <g id="social" transform="translate(495.000000, 40.000000)" fill="#585858" fill-rule="nonzero">
            <path d="M184.087233,0 C173.178069,0 164.333202,8.92573529 164.333202,19.9346405 C164.333202,30.9435458 173.178069,39.869281 184.087233,39.869281 C194.996396,39.869281 203.841264,30.9435458 203.841264,19.9346405 C203.841264,8.92324346 194.996396,0 184.087233,0 Z M196.433502,31.4942402 C196.433502,31.9901144 196.033483,32.3937908 195.542101,32.3937908 L172.632364,32.3937908 C172.140982,32.3937908 171.740963,31.9901144 171.740963,31.4942402 L171.740963,8.37504085 C171.740963,7.87916667 172.140982,7.4754902 172.632364,7.4754902 L195.542101,7.4754902 C196.033483,7.4754902 196.433502,7.87916667 196.433502,8.37504085 L196.433502,31.4942402 Z M179.148725,19.9346405 C179.148725,22.68704 181.35977,24.9183007 184.087233,24.9183007 C186.814695,24.9183007 189.02574,22.68704 189.02574,19.9346405 C189.02574,17.182241 186.814695,14.9509804 184.087233,14.9509804 C181.35977,14.9509804 179.148725,17.182241 179.148725,19.9346405 L179.148725,19.9346405 Z M189.02574,9.96732026 L193.964248,9.96732026 L193.964248,14.9509804 L189.02574,14.9509804 L189.02574,9.96732026 Z M191.433263,19.9346405 C191.433263,24.0237337 188.136809,27.347835 184.087233,27.347835 C180.037656,27.347835 176.741202,24.0237337 176.741202,19.9346405 C176.741202,19.4038807 176.802934,19.1895833 176.906642,18.6887255 L174.210217,18.6887255 L174.210217,29.9019608 L193.964248,29.9019608 L193.964248,18.6887255 L191.267823,18.6887255 C191.374001,19.1895833 191.433263,19.4038807 191.433263,19.9346405 Z" id="Shape"></path>
        </g>
    </g>
</svg>