<?xml version="1.0" encoding="UTF-8"?>
<svg width="40px" height="40px" viewBox="0 0 40 40" version="1.1" xmlns="http://www.w3.org/2000/svg" xmlns:xlink="http://www.w3.org/1999/xlink">
    <!-- Generator: Sketch 48.1 (47250) - http://www.bohemiancoding.com/sketch -->
    <title>Shape</title>
    <desc>Created with Sketch.</desc>
    <defs></defs>
    <g id="footer/v3" stroke="none" stroke-width="1" fill="none" fill-rule="evenodd" transform="translate(-577.000000, -40.000000)">
        <g id="social" transform="translate(495.000000, 40.000000)" fill="#585858" fill-rule="nonzero">
            <path d="M101.920632,0 C91.0114682,0 82.1666009,8.92573529 82.1666009,19.9346405 C82.1666009,30.9435458 91.0114682,39.869281 101.920632,39.869281 C112.829795,39.869281 121.674663,30.9435458 121.674663,19.9346405 C121.674663,8.92324346 112.829795,0 101.920632,0 Z M96.4092572,33.3481618 C92.0362086,33.3481618 88.3471433,31.5515523 88.3471433,28.6809641 C88.3471433,25.7680147 91.7127363,22.9547386 96.0857849,22.9572304 C96.5623509,22.9572304 96.9994089,22.9447712 97.4512823,22.9447712 C96.8537229,22.3591912 96.3796261,21.6390523 96.3796261,20.749469 C96.3796261,20.221201 96.5475354,19.7153595 96.7796453,19.2643382 C96.5425969,19.281781 96.30061,19.2892565 96.0512154,19.2892565 C92.458451,19.2892565 90.0533977,16.7102124 90.0533977,13.5131944 C90.0533977,10.3859477 93.3745442,7.68729575 96.9055772,7.68729575 L104.782497,7.68729575 L103.014511,8.97308007 L100.518096,8.97308007 C102.174965,9.61597222 103.056489,11.5645833 103.056489,13.563031 C103.056489,15.2400327 102.135457,16.6852941 100.83416,17.7119281 C99.5624944,18.7161356 99.3229768,19.1347631 99.3229768,19.986969 C99.3229768,20.7145833 100.686005,21.950531 101.39715,22.4588644 C103.478731,23.9439951 104.150368,25.324469 104.150368,27.6244281 C104.147899,30.4950163 101.394681,33.3481618 96.4092572,33.3481618 Z M116.736155,17.4901552 L111.797647,17.4901552 L111.797647,22.463848 L109.330863,22.463848 L109.330863,17.4901552 L104.389886,17.4901552 L104.389886,14.9509804 L109.330863,14.9509804 L109.330863,9.96732026 L111.797647,9.96732026 L111.797647,14.9509804 L116.736155,14.9509804 L116.736155,17.4901552 Z M98.8809803,24.0162582 C98.2834209,23.8218954 97.6241301,23.7072712 96.9203927,23.6997958 C93.898026,23.667402 91.1917238,25.558701 91.1917238,27.8337418 C91.1917238,30.1536356 93.3745442,32.0848039 96.3969109,32.0848039 C100.646497,32.0848039 102.12558,30.2707516 102.12558,27.9533497 C102.12558,27.6717729 102.09101,27.4001634 102.029279,27.1335376 C101.698399,25.8178513 100.520565,25.1649918 98.8809803,24.0162582 Z M100.226724,13.7175245 C99.8760896,11.0313317 97.9476023,8.87340686 95.9203449,8.81111111 C93.8930875,8.75130719 92.5325286,10.807067 92.8831627,13.4982435 C93.2337967,16.1869281 95.162284,18.417116 97.1920107,18.4769199 C99.2167988,18.5392157 100.579827,16.408701 100.226724,13.7175245 Z" id="Shape"></path>
        </g>
    </g>
</svg>