<svg xmlns="http://www.w3.org/2000/svg" viewBox="0 0 15 20"><defs><style>.a{fill:#e9656b;}</style></defs><path class="a" d="M12.5,20H2.5A1.5,1.5,0,0,1,1,18.5V5.914A1.5,1.5,0,0,1,0,4.5v-1A1.5,1.5,0,0,1,1.5,2H5V1.5A1.5,1.5,0,0,1,6.5,0h2A1.5,1.5,0,0,1,10,1.5V2h3.5A1.5,1.5,0,0,1,15,3.5v1a1.5,1.5,0,0,1-1,1.414V18.5A1.5,1.5,0,0,1,12.5,20ZM2,6V18.5a.5.5,0,0,0,.5.5h10a.5.5,0,0,0,.5-.5V6ZM1.5,3a.5.5,0,0,0-.5.5v1a.5.5,0,0,0,.5.5h12a.5.5,0,0,0,.5-.5v-1a.5.5,0,0,0-.5-.5Zm5-2a.5.5,0,0,0-.5.5V2H9V1.5A.5.5,0,0,0,8.5,1Z"/><path class="a" d="M.5,0A.5.5,0,0,0,0,.5v10a.5.5,0,0,0,1,0V.5A.5.5,0,0,0,.5,0Z" transform="translate(10 7)"/><path class="a" d="M.5,0A.5.5,0,0,0,0,.5v10a.5.5,0,0,0,1,0V.5A.5.5,0,0,0,.5,0Z" transform="translate(7 7)"/><path class="a" d="M.5,0A.5.5,0,0,0,0,.5v10a.5.5,0,0,0,1,0V.5A.5.5,0,0,0,.5,0Z" transform="translate(4 7)"/></svg>